<svg class="emoji emoji-5" width="100%" height="100%" viewBox="0 0 115 119" version="1.1" xmlns="http://www.w3.org/2000/svg" xmlns:xlink="http://www.w3.org/1999/xlink" xml:space="preserve" xmlns:serif="http://www.serif.com/" style="fill-rule:evenodd;clip-rule:evenodd;stroke-linejoin:round;stroke-miterlimit:2;"><g><path d="M81.441,12.248c-8.871,0 -17.649,3.805 -24.164,10.346c-6.515,-6.541 -15.293,-10.346 -24.164,-10.346c-18.565,0 -33.113,15.629 -33.113,35.577c0,29.322 49.702,65.87 55.365,69.936c0.587,0.433 1.246,0.637 1.912,0.637c0.651,0 1.303,-0.196 1.883,-0.604c20.569,-14.485 55.394,-45.506 55.394,-69.969c0,-19.948 -14.549,-35.577 -33.113,-35.577Z" style="fill:#f44336;fill-rule:nonzero;"/><path d="M100.235,20.413c-7.897,0 -14.32,-7.324 -14.32,-16.33c0,-2.254 -1.603,-4.083 -3.579,-4.083c-1.977,0 -3.58,1.829 -3.58,4.083c0,9.006 -6.422,16.33 -14.319,16.33c-1.977,0 -3.58,1.83 -3.58,4.083c0,2.254 1.603,4.083 3.58,4.083c7.897,0 14.319,7.324 14.319,16.331c0,2.253 1.603,4.082 3.58,4.082c1.976,0 3.579,-1.829 3.579,-4.082c0,-9.007 6.423,-16.331 14.32,-16.331c1.976,0 3.579,-1.829 3.579,-4.083c0,-2.253 -1.603,-4.083 -3.579,-4.083Z" style="fill:#ffca28;fill-rule:nonzero;"/><path d="M50.117,81.654c-7.897,0 -14.319,-7.324 -14.319,-16.331c0,-2.253 -1.604,-4.083 -3.58,-4.083c-1.976,0 -3.58,1.83 -3.58,4.083c0,9.007 -6.422,16.331 -14.319,16.331c-1.976,0 -3.58,1.829 -3.58,4.083c0,2.253 1.604,4.082 3.58,4.082c7.897,0 14.319,7.325 14.319,16.331c0,2.254 1.604,4.083 3.58,4.083c1.976,0 3.58,-1.829 3.58,-4.083c0,-9.006 6.422,-16.331 14.319,-16.331c1.976,0 3.58,-1.829 3.58,-4.082c0,-2.254 -1.604,-4.083 -3.58,-4.083Z" style="fill:#ffca28;fill-rule:nonzero;"/></g></svg>