<svg class="emoji emoji-4" width="100%" height="100%" viewBox="0 0 109 109" version="1.1" xmlns="http://www.w3.org/2000/svg" xmlns:xlink="http://www.w3.org/1999/xlink" xml:space="preserve" xmlns:serif="http://www.serif.com/" style="fill-rule:evenodd;clip-rule:evenodd;stroke-linejoin:round;stroke-miterlimit:2;"><g><circle cx="54.493" cy="54.493" r="54.493" style="fill:#ffca28;"/><path d="M74.859,27.314l-40.869,0c-9.387,0 -17.029,7.643 -17.029,17.029c0,9.387 7.642,17.029 17.029,17.029c5.136,0 9.945,-2.268 13.187,-6.219c0.082,-0.102 0.164,-0.211 0.238,-0.327l7.01,-8.521l7.002,8.521c0.075,0.116 0.15,0.225 0.238,0.334c3.256,3.951 8.058,6.219 13.194,6.219c9.394,0 17.029,-7.642 17.029,-17.029c0,-9.386 -7.642,-17.036 -17.029,-17.036Z" style="fill:#263238;fill-rule:nonzero;"/><path d="M54.425,88.619c-9.101,0 -17.649,-3.549 -24.086,-9.979c-1.328,-1.328 -1.328,-3.488 0,-4.816c1.328,-1.328 3.487,-1.328 4.816,0c10.292,10.299 28.234,10.299 38.533,0c1.328,-1.328 3.487,-1.328 4.816,0c1.328,1.328 1.328,3.488 0,4.816c-6.437,6.437 -14.979,9.979 -24.079,9.979Z" style="fill:#6d4c41;fill-rule:nonzero;"/></g></svg>