<svg class="emoji emoji-2" width="100%" height="100%" viewBox="0 0 106 99" version="1.1" xmlns="http://www.w3.org/2000/svg" xmlns:xlink="http://www.w3.org/1999/xlink" xml:space="preserve" xmlns:serif="http://www.serif.com/" style="fill-rule:evenodd;clip-rule:evenodd;stroke-linejoin:round;stroke-miterlimit:2;"><g><path d="M92.184,39.507l-16.462,0c-5.445,0 -9.876,-4.431 -9.876,-9.876l0,-13.17c0,-9.073 -7.388,-16.461 -16.462,-16.461c-5.445,0 -9.877,4.431 -9.877,9.877l0,9.166c0,4.174 -1.132,8.276 -3.285,11.858l-2.285,3.806c-1.778,2.963 -5.018,4.8 -8.468,4.8l-2.423,0c-1.817,0 -3.292,1.475 -3.292,3.293l0,42.799c0,1.159 0.605,2.232 1.6,2.825l12.55,7.533c3.068,1.844 6.584,2.818 10.16,2.818l40.739,0c3.463,0 6.861,-1.409 9.31,-3.859l7.381,-7.381c2.45,-2.456 3.859,-5.853 3.859,-9.317l0,-25.541c0,-7.263 -5.906,-13.17 -13.169,-13.17Z" style="fill:#90caf9;fill-rule:nonzero;"/><path d="M23.046,39.507l-19.754,0c-1.817,0 -3.292,1.475 -3.292,3.293l0,52.676c0,1.818 1.475,3.292 3.292,3.292l19.754,0c1.817,0 3.292,-1.474 3.292,-3.292l0,-52.676c0,-1.818 -1.475,-3.293 -3.292,-3.293Z" style="fill:#1976d2;fill-rule:nonzero;"/></g></svg>