<svg class="emoji emoji-3" width="100%" height="100%" viewBox="0 0 114 130" version="1.1" xmlns="http://www.w3.org/2000/svg" xmlns:xlink="http://www.w3.org/1999/xlink" xml:space="preserve" xmlns:serif="http://www.serif.com/" style="fill-rule:evenodd;clip-rule:evenodd;stroke-linejoin:round;stroke-miterlimit:2;"><g><path d="M56.64,0c-31.233,0 -56.64,25.407 -56.64,56.64c0,29.323 23.781,72.823 56.64,72.823c32.859,0 56.64,-43.5 56.64,-72.823c0,-31.233 -25.415,-56.64 -56.64,-56.64Z" style="fill:#8bc34a;fill-rule:nonzero;"/><path d="M97.057,43.928c-0.146,-1.06 -0.721,-2.014 -1.578,-2.662c-0.85,-0.647 -1.926,-0.906 -2.994,-0.768c-17.826,2.548 -30.262,19.12 -27.713,36.937c0.291,2.023 2.023,3.479 3.997,3.479c0.186,0 0.388,-0.016 0.574,-0.04c8.634,-1.23 16.28,-5.761 21.507,-12.736c5.236,-6.975 7.436,-15.568 6.207,-24.21Z" style="fill:#263238;fill-rule:nonzero;"/><path d="M20.803,40.498c-2.185,-0.3 -4.264,1.221 -4.58,3.43c-1.23,8.634 0.971,17.235 6.206,24.21c5.227,6.975 12.874,11.498 21.507,12.736c0.186,0.024 0.381,0.04 0.567,0.04c1.982,0 3.714,-1.456 4.005,-3.479c1.23,-8.634 -0.971,-17.227 -6.206,-24.21c-5.227,-6.974 -12.865,-11.489 -21.499,-12.727Z" style="fill:#263238;fill-rule:nonzero;"/></g></svg>