<svg class="emoji emoji-1" width="100%" height="100%" viewBox="0 0 120 120" version="1.1" xmlns="http://www.w3.org/2000/svg" xmlns:xlink="http://www.w3.org/1999/xlink" xml:space="preserve" xmlns:serif="http://www.serif.com/" style="fill-rule:evenodd;clip-rule:evenodd;stroke-linejoin:round;stroke-miterlimit:2;"><g><circle cx="59.632" cy="59.632" r="59.632" style="fill:#ffca28;"/><path d="M93.101,48.526c-2.057,0 -3.727,-1.67 -3.727,-3.727c0,-4.107 -3.339,-7.454 -7.454,-7.454c-4.115,0 -7.454,3.347 -7.454,7.454c0,2.057 -1.67,3.727 -3.727,3.727c-2.057,0 -3.727,-1.67 -3.727,-3.727c0,-8.222 6.686,-14.908 14.908,-14.908c8.222,0 14.908,6.686 14.908,14.908c0,2.065 -1.67,3.727 -3.727,3.727Z" style="fill:#6d4c41;fill-rule:nonzero;"/><path d="M48.377,48.526c-2.058,0 -3.727,-1.67 -3.727,-3.727c0,-4.107 -3.347,-7.454 -7.454,-7.454c-4.107,0 -7.454,3.347 -7.454,7.454c0,2.057 -1.67,3.727 -3.727,3.727c-2.058,0 -3.727,-1.67 -3.727,-3.727c0,-8.222 6.686,-14.908 14.908,-14.908c8.222,0 14.908,6.686 14.908,14.908c0,2.065 -1.67,3.727 -3.727,3.727Z" style="fill:#6d4c41;fill-rule:nonzero;"/><path d="M101.957,68.644c-0.709,-0.931 -1.804,-1.483 -2.967,-1.483l-78.864,0c-1.17,0 -2.266,0.544 -2.967,1.476c-0.715,0.939 -0.939,2.139 -0.626,3.265c5.389,19.149 23.085,32.529 43.017,32.529c19.933,0 37.629,-13.38 43.018,-32.529c0.32,-1.126 0.097,-2.326 -0.611,-3.258Z" style="fill:#fafafa;fill-rule:nonzero;"/></g></svg>